<?xml version="1.0" encoding="UTF-8"?>
<!DOCTYPE svg PUBLIC "-//W3C//DTD SVG 1.1//EN" "http://www.w3.org/Graphics/SVG/1.1/DTD/svg11.dtd">
<!-- Creator: CorelDRAW 2019 -->
<svg xmlns="http://www.w3.org/2000/svg" xml:space="preserve" width="100%" height="100%" version="1.1" style="shape-rendering:geometricPrecision; text-rendering:geometricPrecision; image-rendering:optimizeQuality; fill-rule:evenodd; clip-rule:evenodd"
viewBox="0 0 2540 1342"
 xmlns:xlink="http://www.w3.org/1999/xlink">
 <defs>
  <style type="text/css">
   <![CDATA[
    .fil1 {fill:#2B2A29}
    .fil0 {fill:#2B2A29}
   ]]>
  </style>
 </defs>
 <g id="Layer_x0020_1">
  <metadata id="CorelCorpID_0Corel-Layer"/>
  <g id="_1067606816">
   <polygon class="fil0" points="0,1043 312,7 476,7 506,298 707,7 883,7 636,833 469,833 609,375 415,637 376,370 175,1042 "/>
   <polygon class="fil0" points="703,833 948,21 952,7 1272,7 1228,153 1074,153 1021,339 1172,339 1128,485 977,485 918,682 1069,682 1024,833 "/>
   <polygon class="fil0" points="1683,1044 1998,7 1821,7 1506,1044 "/>
   <path class="fil0" d="M2073 565l159 -385 -62 385 -97 0zm-362 478l452 -1037 236 0 -111 826 -163 0 27 -150 -124 0 -149 361 -169 0z"/>
   <path class="fil0" d="M1290 705l171 -570 62 0c28,0 25,24 20,40l-137 472c0,0 -14,55 -32,57l-84 0zm-205 128l248 -826 322 0c71,0 87,50 68,112l-189 630c0,0 -15,84 -123,84 -108,0 -327,0 -327,0z"/>
   <path class="fil1" d="M1263 1252c-20,44 -63,89 -113,95l-11 1 102 -212c12,-34 44,-60 80,-60 70,0 141,0 211,0l14 0 -51 51c-8,10 -22,17 -35,17 -44,0 -89,0 -134,-1 -9,-1 -17,7 -21,13l-12 21c-1,2 -3,7 -3,9 0,0 2,0 2,0 35,0 71,0 106,0l1 0 1 0c14,4 26,17 17,32 -16,27 -20,33 -56,33l-99 0zm325 -174l247 0 1 0c29,7 28,40 19,62 -28,68 -61,136 -92,204l-2 4 -251 0c-24,-4 -35,-27 -35,-49 0,-47 66,-114 114,-114l150 0c8,1 21,-1 27,-7 19,-19 14,-36 -15,-36l-146 1 -1 0c-15,-4 -27,-16 -27,-32 0,-9 2,-25 9,-32l2 -2zm359 202c45,0 90,0 135,0 36,0 47,33 42,64l-1 5 -5 0c-76,-1 -152,-1 -228,-1 -34,0 -41,-35 -36,-62l0 -1 70 -149c15,-26 44,-55 77,-58l245 0 -7 10c-20,28 -58,60 -95,57l-132 0c-9,0 -19,6 -24,14l-52 99c-6,12 1,20 12,23zm419 -197c-18,39 -36,79 -54,118 -17,36 -34,79 -54,113 -11,19 -33,35 -55,32 -27,1 -24,-28 -17,-45 22,-51 48,-111 77,-157 19,-31 61,-58 96,-68l13 -4 -5 12zm-47 -48c-15,-26 13,-54 34,-66 14,-8 57,-27 60,2 7,28 -12,53 -37,63 -11,4 -49,17 -56,1zm178 -73c41,2 48,44 39,77 -21,46 -43,93 -65,139 -20,43 -42,95 -65,135 -13,23 -30,32 -55,32 -14,0 -20,-17 -18,-28l0 -1 161 -354 4 0zm-939 318l147 0c12,1 23,-5 26,-17 3,-12 -4,-13 -15,-12l-148 0c-8,-1 -15,5 -19,11 -6,10 -2,15 8,18z"/>
  </g>
 </g>
</svg>
