<?xml version="1.0" encoding="UTF-8"?>
<!DOCTYPE svg PUBLIC "-//W3C//DTD SVG 1.1//EN" "http://www.w3.org/Graphics/SVG/1.1/DTD/svg11.dtd">
<!-- Creator: CorelDRAW 2019 -->
<svg xmlns="http://www.w3.org/2000/svg" xml:space="preserve" width="100%" height="100%" version="1.1" style="shape-rendering:geometricPrecision; text-rendering:geometricPrecision; image-rendering:optimizeQuality; fill-rule:evenodd; clip-rule:evenodd"
viewBox="0 0 2540 2540"
 xmlns:xlink="http://www.w3.org/1999/xlink">
 <defs>
  <style type="text/css">
   <![CDATA[
    .fil0 {fill:black}
    .fil1 {fill:#F58634;fill-rule:nonzero}
   ]]>
  </style>
 </defs>
 <g id="Layer_x0020_1">
  <metadata id="CorelCorpID_0Corel-Layer"/>
  <g id="_1205405344">
   <path class="fil0" d="M1926 1316l-121 20c1,84 125,294 171,343 4,-3 10,-13 11,-9 1,3 9,-8 11,-10 2,-2 8,-8 10,-10l244 -329 -182 48c1,-309 -40,-444 -187,-644 -201,-272 -686,-432 -613,-222 34,97 178,21 405,228 146,133 245,299 253,584z"/>
   <path class="fil0" d="M764 1900c41,-55 13,-17 66,-59 70,-55 19,13 64,-64l-454 0 164 430c51,-109 26,-22 53,-173 191,64 349,211 715,129 189,-42 493,-185 494,-376 -92,-61 -57,-21 -242,103 -286,193 -670,197 -860,10z"/>
   <path class="fil0" d="M786 470c-132,126 -289,142 -434,469 -56,128 -146,801 100,665 37,-74 -74,-353 37,-608 62,-143 216,-345 381,-375l11 179 246 -401 -450 -66c45,92 66,80 108,137z"/>
   <path class="fil1" d="M909 1343c94,0 145,-55 145,-153l0 -239c0,-98 -51,-153 -145,-153 -94,0 -145,55 -145,153l0 239c0,98 51,153 145,153zm-23 425l96 0 370 -957 -96 0 -370 957zm23 -511c-31,0 -49,-18 -49,-60l0 -253c0,-42 18,-60 49,-60 30,0 49,18 49,60l0 253c0,42 -19,60 -49,60zm420 525c94,0 145,-55 145,-153l0 -239c0,-98 -51,-153 -145,-153 -94,0 -145,55 -145,153l0 239c0,98 51,153 145,153zm0 -86c-31,0 -49,-18 -49,-60l0 -253c0,-42 18,-60 49,-60 30,0 49,18 49,60l0 253c0,42 -19,60 -49,60z"/>
   <polygon id="1" class="fil1" points="1553,1660 1737,1580 1737,1536 1553,1457 1553,1505 1680,1558 1553,1612 "/>
  </g>
 </g>
</svg>
