<?xml version="1.0" encoding="UTF-8"?>
<!DOCTYPE svg PUBLIC "-//W3C//DTD SVG 1.1//EN" "http://www.w3.org/Graphics/SVG/1.1/DTD/svg11.dtd">
<!-- Creator: CorelDRAW 2019 -->
<svg xmlns="http://www.w3.org/2000/svg" xml:space="preserve" width="100%" height="100%" version="1.1" style="shape-rendering:geometricPrecision; text-rendering:geometricPrecision; image-rendering:optimizeQuality; fill-rule:evenodd; clip-rule:evenodd"
viewBox="0 0 2540 2540"
 xmlns:xlink="http://www.w3.org/1999/xlink">
 <defs>
  <style type="text/css">
   <![CDATA[
    .fil1 {fill:#F58634}
    .fil0 {fill:black;fill-rule:nonzero}
   ]]>
  </style>
 </defs>
 <g id="Layer_x0020_1">
  <metadata id="CorelCorpID_0Corel-Layer"/>
  <g id="_1059771048">
   <path class="fil0" d="M740 1392l388 0 -204 -564 -185 564zm-448 665l540 -1574 426 0 576 1574 -468 0 -166 -465 -528 0 -156 465 -224 0z"/>
   <path class="fil1" d="M1715 1176c-51,29 -121,40 -174,61 -345,137 -553,439 -272,662 50,39 284,150 352,105 -110,-66 -304,-137 -313,-281 -10,-161 265,-203 408,-203 -12,73 -28,146 -38,213 24,-12 110,-70 136,-90l434 -281c-31,-52 -548,-379 -569,-389l35 202z"/>
  </g>
 </g>
</svg>
