<?xml version="1.0" encoding="UTF-8"?>
<!DOCTYPE svg PUBLIC "-//W3C//DTD SVG 1.1//EN" "http://www.w3.org/Graphics/SVG/1.1/DTD/svg11.dtd">
<!-- Creator: CorelDRAW 2019 -->
<svg xmlns="http://www.w3.org/2000/svg" xml:space="preserve" width="100%" height="100%" version="1.1" style="shape-rendering:geometricPrecision; text-rendering:geometricPrecision; image-rendering:optimizeQuality; fill-rule:evenodd; clip-rule:evenodd"
viewBox="0 0 2540 2540"
 xmlns:xlink="http://www.w3.org/1999/xlink">
 <defs>
  <style type="text/css">
   <![CDATA[
    .fil0 {fill:#F58634}
    .fil1 {fill:black}
   ]]>
  </style>
 </defs>
 <g id="Layer_x0020_1">
  <metadata id="CorelCorpID_0Corel-Layer"/>
  <g id="_1054924680">
   <path class="fil0" d="M1473 1862c209,-74 90,-19 228,13 89,21 177,-59 185,-122 16,-132 -97,-89 -48,-218 42,-111 101,-81 204,-118 33,-221 19,-225 -180,-268 -65,-255 -8,-84 32,-283 -37,-88 -64,-116 -153,-148 -116,35 -100,93 -205,58 -116,-38 -73,-94 -122,-200l-215 -12c-23,59 -63,187 -77,230 194,134 69,42 308,111 409,119 342,714 70,525 -83,-58 -16,-77 -120,-82 -72,107 44,79 76,199 64,239 -331,240 -504,-17 -109,-161 -24,-444 -223,-385 -184,54 -184,44 -160,278 108,32 159,-2 205,116 43,113 -35,80 -55,219l127 136c139,-22 105,-83 219,-58 185,40 17,177 183,218 209,51 202,-141 225,-190z"/>
   <path class="fil1" d="M1367 1611c-39,-117 -124,-108 -135,-207 -10,-93 78,-151 162,-178 160,47 90,102 226,137 3,-167 -25,-273 -158,-344 -296,-157 -39,204 -623,-391 -51,-52 -228,-254 -333,-81 -77,127 83,246 138,300 577,571 214,329 386,627 38,66 209,211 337,136z"/>
   <path class="fil0" d="M604 597c-6,106 382,498 484,482 -1,-92 -373,-474 -484,-482z"/>
  </g>
 </g>
</svg>
