<?xml version="1.0" encoding="UTF-8"?>
<!DOCTYPE svg PUBLIC "-//W3C//DTD SVG 1.1//EN" "http://www.w3.org/Graphics/SVG/1.1/DTD/svg11.dtd">
<!-- Creator: CorelDRAW 2019 -->
<svg xmlns="http://www.w3.org/2000/svg" xml:space="preserve" width="100%" height="100%" version="1.1" style="shape-rendering:geometricPrecision; text-rendering:geometricPrecision; image-rendering:optimizeQuality; fill-rule:evenodd; clip-rule:evenodd"
viewBox="0 0 2540 2540"
 xmlns:xlink="http://www.w3.org/1999/xlink">
 <defs>
  <style type="text/css">
   <![CDATA[
    .fil0 {fill:black}
    .fil1 {fill:#F58634}
   ]]>
  </style>
 </defs>
 <g id="Layer_x0020_1">
  <metadata id="CorelCorpID_0Corel-Layer"/>
  <g id="_1204248872">
   <path class="fil0" d="M2080 2017l0 -1494c0,-30 -34,-63 -63,-63l-1127 0c-30,0 -37,21 -63,38l11 428 49 -65c27,-27 54,-49 92,-59l0 -190 949 0 0 1317 -949 0 0 -279c-32,23 -152,216 -152,266 0,50 -16,165 63,165l1127 0c30,0 63,-34 63,-63z"/>
   <path class="fil0" d="M1809 863l-18 -76c-137,-22 -432,-22 -569,0 -124,178 200,139 459,139 62,0 129,-22 129,-63z"/>
   <path class="fil1" d="M1194 758l-262 168c-30,30 -58,93 -82,133 -59,98 -390,659 -390,699 0,65 144,165 253,165 45,0 77,-81 97,-118l241 -418c123,-220 183,-239 181,-464 0,-72 31,-165 -38,-165z"/>
   <path class="fil0" d="M1802 1480c0,-66 -29,-101 -101,-101 -150,0 -487,-20 -582,25 -44,187 59,139 570,139 51,0 114,-14 114,-63z"/>
   <path class="fil0" d="M1802 1733c0,-60 -44,-76 -114,-76l-494 0c-118,0 -138,165 38,165l443 0c70,0 127,-17 127,-89z"/>
   <path class="fil0" d="M1802 1201l-13 -76c-95,-22 -298,-22 -392,0 -86,178 138,139 316,139 43,0 89,-22 89,-63z"/>
  </g>
 </g>
</svg>
